<?xml version="1.0" encoding="UTF-8"?>
<svg clip-rule="evenodd" enable-background="new" fill-rule="evenodd" stroke-linejoin="round" stroke-miterlimit="1.4142" version="1.1" viewBox="0 0 64 64" xml:space="preserve" xmlns="http://www.w3.org/2000/svg" xmlns:cc="http://creativecommons.org/ns#" xmlns:dc="http://purl.org/dc/elements/1.1/" xmlns:osb="http://www.openswatchbook.org/uri/2009/osb" xmlns:rdf="http://www.w3.org/1999/02/22-rdf-syntax-ns#" xmlns:xlink="http://www.w3.org/1999/xlink"><metadata><rdf:RDF><cc:Work rdf:about=""><dc:format>image/svg+xml</dc:format><dc:type rdf:resource="http://purl.org/dc/dcmitype/StillImage"/><dc:title/></cc:Work></rdf:RDF></metadata><defs><linearGradient id="a" x1=".025172" x2="1" y1=".07949" gradientTransform="matrix(0 473.9 -473.9 0 547.88 192.22)" gradientUnits="userSpaceOnUse"><stop stop-color="#ec2802" offset="0"/><stop stop-color="#fcb200" offset="1"/></linearGradient><linearGradient id="e"><stop stop-color="#aaa" offset="0"/><stop stop-color="#424242" offset="1"/></linearGradient><linearGradient id="b" x1="19.062" x2="19" y2="43.25" gradientTransform="matrix(.95039 0 0 .91401 29.943 -23.161)" gradientUnits="userSpaceOnUse" xlink:href="#a"/><clipPath id="d"><path d="m14.813 26.75 4.1869-10.805 4.1869 10.805-4.1869 16.5z" fill="none" stroke="#000" stroke-linejoin="miter" stroke-miterlimit="1.4142" stroke-width=".037795"/></clipPath><linearGradient id="g" x1="48.748" x2="48.748" y1="2.538" y2="59.381" gradientTransform="matrix(.84565 0 0 .82217 6.5636 -53.721)" gradientUnits="userSpaceOnUse" xlink:href="#e"/><linearGradient id="f" x1="35.337" x2="35.337" y1="1.3206" y2="-2.4122" gradientTransform="matrix(.95579 0 0 1.0104 .41875 -.76488)" gradientUnits="userSpaceOnUse"><stop offset="0"/><stop stop-opacity="0" offset="1"/></linearGradient><filter id="c" x="-.096199" y="-.074239" width="1.1924" height="1.1485" color-interpolation-filters="sRGB"><feGaussianBlur stdDeviation="1.0020779"/></filter><linearGradient id="i" x1="2.5739" x2="63.51" y1="-.58921" y2="-.58921" gradientTransform="matrix(.95579 0 0 1.0104 .41875 -.76488)" gradientUnits="userSpaceOnUse" xlink:href="#a"/><filter id="l" x="-.064271" y="-.056261" width="1.1285" height="1.1125" color-interpolation-filters="sRGB"><feGaussianBlur stdDeviation="0.9671398"/></filter><linearGradient id="h" x1="48.748" x2="48.748" y1="2.538" y2="59.381" gradientTransform="matrix(.9697 0 0 .95131 .48485 -1.1843)" gradientUnits="userSpaceOnUse" xlink:href="#e"/><filter id="k" x="-.0076852" y="-.0092614" width="1.0154" height="1.0185" color-interpolation-filters="sRGB"><feGaussianBlur stdDeviation="0.1698072"/></filter><filter id="j" x="-.0089979" y="-.0078766" width="1.018" height="1.0158" color-interpolation-filters="sRGB"><feGaussianBlur stdDeviation="0.13539957"/></filter></defs><g transform="translate(0 7.3209)"><g stroke-width=".98271"><rect x="2.8789" y="-4.3995" width="58.242" height="6.0787" rx="2.0727" ry="2.1058" fill="url(#i)"/><rect x="2.8789" y="-4.3995" width="58.242" height="6.0787" rx="2.0727" ry="2.1058" fill="url(#f)" opacity=".5"/></g></g><g transform="translate(-16 4.7829)"><g><rect x="16" y=".72006" width="64" height="54.297" rx="3.4068" ry="3.4422" fill="#dedede" style="paint-order:markers fill stroke"/><rect x="16" y="1.2301" width="64" height="53.987" rx="3.4068" ry="3.4225" fill="url(#h)" style="paint-order:markers fill stroke"/><rect transform="scale(1,-1)" x="20.094" y="-51.634" width="55.813" height="46.658" rx="1.6427" ry="1.6543" fill="url(#g)" style="paint-order:markers fill stroke"/></g></g><g transform="translate(-16 35.821)"><rect x="20.387" y="-25.562" width="55.226" height="45.616" rx="1.5307" ry="1.5307" style="paint-order:markers fill stroke"/><rect x="21.545" y="-24.605" width="52.91" height="43.703" rx="0" ry="0" fill="#14232b" style="paint-order:markers fill stroke"/></g><g transform="translate(-16 35.821)"><g clip-rule="evenodd" fill-rule="evenodd" filter="url(#j)"><path d="m44.994 1.1992-0.9431 2.285c2.5342 7.8036 2.5342 7.8036 3.9489 14.611 1.4147-6.8073 1.4147-6.8073 3.9489-14.611l-3.9489-9.5679z" fill="#069efe" style="paint-order:stroke markers fill"/><path d="m44.674-23.161h6.6528l14.731 36.56h-6.1776l-11.88-27.924-11.88 27.924h-6.1776z" fill="url(#b)" stroke-miterlimit="1.4142" stroke-width="0"/><path transform="matrix(.94315 0 0 .90705 30.08 -20.547)" d="m19 32.395 12.5-32.395-25 0.13314z" clip-path="url(#d)" fill="#fff" filter="url(#c)" style="paint-order:markers fill stroke"/></g></g><g transform="translate(-16 35.821)"><g clip-rule="evenodd" fill-rule="evenodd" filter="url(#l)"><path d="m44.994 1.1992-0.9431 2.285c2.5342 7.8036 2.5342 7.8036 3.9489 14.611 1.4147-6.8073 1.4147-6.8073 3.9489-14.611l-3.9489-9.5679z" fill="#069efe" style="paint-order:stroke markers fill"/><path d="m44.674-23.161h6.6528l14.731 36.56h-6.1776l-11.88-27.924-11.88 27.924h-6.1776z" fill="url(#b)" stroke-miterlimit="1.4142" stroke-width="0"/><path transform="matrix(.94315 0 0 .90705 30.08 -20.547)" d="m19 32.395 12.5-32.395-25 0.13314z" clip-path="url(#d)" fill="#fff" filter="url(#c)" style="paint-order:markers fill stroke"/></g></g><g transform="translate(-16 4.7829)"><g fill="none" filter="url(#k)" opacity=".75" stroke="#000" stroke-linejoin="miter" stroke-miterlimit="1.4142" stroke-width=".25"><path d="m21.486 29.433h53.029"/><path d="m21.486 44.835h53.029"/><path d="m21.486 32.734h53.029"/><path d="m21.486 39.334h53.029"/><path d="m21.486 7.4312h53.029"/><path d="m21.486 33.834h53.029"/><path d="m21.486 22.833h53.029"/><path d="m21.486 14.032h53.029"/><path d="m21.486 25.033h53.029"/><path d="m21.486 11.832h53.029"/><path d="m21.486 47.035h53.029"/><path d="m21.486 48.135h53.029"/><path d="m21.486 28.333h53.029"/><path d="m21.486 26.133h53.029"/><path d="m21.486 27.233h53.029"/><path d="m21.486 23.933h53.029"/><path d="m21.486 45.935h53.029"/><path d="m21.486 9.6314h53.029"/><path d="m21.486 10.732h53.029"/><path d="m21.486 12.932h53.029"/><path d="m21.486 37.134h53.029"/><path d="m21.486 38.234h53.029"/><path d="m21.486 43.735h53.029"/><path d="m21.486 17.332h53.029"/><path d="m21.486 40.434h53.029"/><path d="m21.486 41.534h53.029"/><path d="m21.486 6.3311h53.029"/><path d="m21.486 30.533h53.029"/><path d="m21.486 31.633h53.029"/><path d="m21.486 49.235h53.029"/><path d="m21.486 16.232h53.029"/><path d="m21.486 15.132h53.029"/><path d="m21.486 36.034h53.029"/><path d="m21.486 50.335h53.029"/><path d="m21.486 20.632h53.029"/><path d="m21.486 21.733h53.029"/><path d="m21.486 42.634h53.029"/><path d="m21.486 18.432h53.029"/><path d="m21.486 19.532h53.029"/><path d="m21.486 34.934h53.029"/><path d="m21.486 8.5313h53.029"/></g></g></svg>
