<?xml version="1.0" encoding="UTF-8"?>
<svg enable-background="new 0 0 512 512" version="1.1" viewBox="0 0 512 512" xml:space="preserve" xmlns="http://www.w3.org/2000/svg">

	<circle cx="256" cy="256" r="256" fill="#14B0BF"/>
	<path d="m437.02 437.02c59.699-59.699 83.722-141.55 72.12-219.09l-107.3-108.07-305.14 53.806 8.771 49.731 2.463-0.435 0.077 0.435h-2.54v168.4c0 6.38 3.036 12.032 7.67 15.77 0.916 1.137 112.07 112.07 112.58 112.58 75.202 8.907 153.6-15.418 211.31-73.125z" fill="#3387B5"/>
	<path d="m415.31 381.79c0 11.192-9.16 20.352-20.352 20.352h-269.15c-11.192 0-20.352-9.16-20.352-20.352v-148.04c0-11.192 9.16-20.352 20.352-20.352h269.15c11.192 0 20.352 9.16 20.352 20.352v148.04z" fill="#0F303F"/>
	<rect x="105.46" y="213.4" width="309.86" height="50.499" fill="#fff"/>
	<path d="m156 220.31-36.874 37.366h37.366l36.874-37.366h-37.366zm155.32 0-36.874 37.366h37.366l36.874-37.366h-37.366zm-103.55 0-36.875 37.365h37.366l36.874-37.366h-37.365zm51.773 0-36.874 37.366h37.366l36.874-37.366h-37.366zm103.55 0-36.874 37.366h37.366l36.874-37.366h-37.366zm51.773 0-36.874 37.366h37.315v-37.366h-0.441zm-309.41 0v37.366h0.246l36.874-37.366h-37.12z" fill="#0F303F"/>
	
		<rect transform="matrix(.9848 -.1736 .1736 .9848 -24.203 46.488)" x="98.721" y="136.35" width="309.86" height="50.498" fill="#fff"/>
	<path d="m316.47 131.94 42.803 30.397 36.797-6.487-42.803-30.397-36.797 6.487zm-152.96 26.967 42.803 30.397 36.797-6.487-42.802-30.397-36.798 6.487zm101.98-17.976 42.803 30.397 36.797-6.487-42.803-30.397-36.797 6.487zm-50.985 8.991 42.803 30.397 36.797-6.487-42.803-30.397-36.797 6.487zm-101.98 17.976 42.803 30.397 36.797-6.487-42.803-30.397-36.797 6.487zm-14.623 2.581 6.487 36.797 36.746-6.482-42.803-30.397-0.43 0.082zm268.58-47.36 42.803 30.397 0.241-0.041-6.487-36.797-36.557 6.441z" fill="#0F303F"/>
	<path d="m394.63 317.38h-0.072v-36.552h-269.44v103.24h269.44v-62.172h0.072v-4.511zm-4.137-32.482v32.481h-101.13v-32.481h101.13zm-105.64 0v32.481h-107.81v-32.481h107.81zm-155.66 95.094v-95.094h43.341v95.094h-43.341zm47.857 0v-58.102h107.81v58.102h-107.81zm213.45 0h-101.13v-58.102h101.12v58.102h5e-3z" fill="#FDC00F"/>
















</svg>
